<?xml version="1.0" standalone="no"?>
<!DOCTYPE svg PUBLIC "-//W3C//DTD SVG 20010904//EN"
 "http://www.w3.org/TR/2001/REC-SVG-20010904/DTD/svg10.dtd">
<svg version="1.0" xmlns="http://www.w3.org/2000/svg"
 width="1024.000000pt" height="1024.000000pt" viewBox="0 0 1024.000000 1024.000000"
 preserveAspectRatio="xMidYMid meet">

<g transform="translate(0.000000,1024.000000) scale(0.100000,-0.100000)"
fill="#000000" stroke="none">
<path d="M4925 8779 c-231 -22 -369 -64 -610 -184 -249 -124 -465 -289 -601
-459 -192 -240 -309 -445 -386 -681 -64 -192 -78 -266 -85 -440 -8 -226 31
-482 113 -737 46 -142 83 -221 199 -423 249 -435 406 -634 1205 -1535 47 -52
136 -154 198 -226 107 -125 141 -154 180 -154 19 0 69 50 168 164 32 39 154
174 270 302 363 400 690 782 829 969 221 298 318 458 425 699 123 279 160 435
167 717 10 349 -32 587 -154 869 -72 166 -122 245 -278 435 -195 237 -402 394
-703 533 -285 132 -602 183 -937 151z m500 -297 c630 -137 1132 -634 1282
-1272 58 -249 35 -696 -40 -744 -14 -10 -86 -21 -197 -31 -314 -28 -578 -87
-791 -178 -258 -111 -492 -250 -639 -380 -165 -147 -469 -453 -544 -549 -42
-54 -82 -98 -88 -98 -7 0 -34 23 -61 51 -26 28 -44 42 -38 31 5 -10 29 -36 52
-56 35 -32 40 -41 32 -59 -9 -21 -10 -20 -28 8 -10 17 -34 49 -52 72 l-34 42
31 42 c16 23 30 50 30 59 0 21 -64 64 -210 140 -98 52 -107 59 -141 115 -36
59 -36 60 -14 63 30 4 189 -56 344 -129 68 -33 128 -59 134 -59 18 0 217 192
217 209 0 24 -23 43 -110 91 -101 56 -263 122 -390 158 -133 39 -328 82 -367
82 -36 0 -77 30 -99 71 -13 27 -13 30 2 36 31 12 220 -7 354 -36 256 -55 524
-155 687 -257 47 -30 87 -54 89 -54 2 0 48 43 102 95 l97 95 -25 20 c-14 11
-83 49 -155 85 -264 132 -682 244 -1156 310 -82 11 -118 20 -127 32 -18 25
-30 75 -48 203 -20 140 -14 395 11 510 23 107 81 272 126 363 254 505 706 845
1238 932 122 20 406 13 526 -13z m1145 -2295 c0 -7 -12 -27 -27 -45 -25 -29
-37 -34 -118 -47 -215 -34 -490 -136 -699 -259 -281 -165 -569 -447 -870 -851
-53 -71 -107 -141 -119 -155 -11 -14 -20 -29 -19 -35 1 -5 -14 8 -33 29 -19
22 -33 42 -30 44 3 3 -5 16 -16 28 l-22 23 31 63 c38 79 104 165 257 343 217
252 403 426 575 537 108 71 358 191 480 232 121 40 319 83 447 95 136 13 163
13 163 -2z m-250 -447 c-8 -5 -15 -18 -16 -28 -3 -50 -58 -99 -186 -162 -122
-60 -235 -149 -375 -294 -115 -118 -303 -357 -389 -491 -39 -62 -194 -377
-194 -395 0 -5 -10 -10 -22 -10 -27 0 -138 109 -138 136 0 27 18 52 28 39 4
-5 37 -37 72 -70 l65 -60 -70 72 -69 73 13 37 c29 83 185 324 320 493 198 249
409 430 632 542 123 61 392 158 329 118z"/>
<path d="M4239 7974 c-37 -87 -43 -146 -27 -280 14 -109 21 -133 65 -230 28
-60 54 -119 58 -132 13 -43 165 -187 234 -222 36 -18 81 -43 100 -55 20 -13
67 -31 105 -40 38 -8 107 -33 153 -55 79 -37 85 -42 108 -92 33 -70 34 -154 3
-209 -24 -42 -85 -79 -131 -79 -40 0 -53 -38 -37 -114 6 -33 20 -76 30 -95 38
-74 120 -139 198 -156 125 -27 280 115 299 274 7 61 -7 87 -51 95 -47 9 -115
61 -132 101 -30 72 -6 173 57 241 28 30 145 82 212 95 216 39 456 260 516 474
15 54 51 300 51 352 0 48 -33 145 -56 164 -12 9 -35 8 -117 -6 -142 -24 -247
-66 -294 -116 -21 -23 -68 -63 -105 -90 -37 -27 -75 -61 -84 -76 -49 -79 -92
-142 -121 -175 -43 -50 -58 -88 -97 -245 -30 -123 -46 -168 -46 -131 0 37 -54
197 -80 238 -15 25 -56 99 -90 165 -70 137 -151 230 -255 292 -33 20 -69 44
-80 53 -53 46 -166 82 -299 96 l-66 7 -21 -49z m366 -349 c92 -29 179 -84 202
-129 9 -17 31 -48 49 -68 53 -59 144 -257 144 -312 l0 -27 -32 17 c-61 32
-138 116 -186 204 -26 46 -68 105 -93 130 -55 55 -179 210 -167 210 2 0 39
-11 83 -25z m1054 -72 c-78 -81 -99 -109 -174 -234 -78 -127 -107 -163 -162
-193 -25 -14 -48 -26 -50 -26 -10 0 10 106 33 172 24 71 60 122 152 215 56 57
194 133 241 133 23 0 20 -6 -40 -67z"/>
<path d="M4649 4904 c11 -15 19 -29 16 -33 -2 -4 7 -20 21 -37 15 -18 22 -22
17 -10 -5 15 -3 17 8 11 7 -5 -6 14 -30 43 -45 54 -69 72 -32 26z m42 -51 c13
-16 12 -17 -3 -4 -10 7 -18 15 -18 17 0 8 8 3 21 -13z"/>
<path d="M6255 5654 c-9 -15 -12 -23 -6 -20 11 7 35 46 28 46 -3 0 -12 -12
-22 -26z"/>
<path d="M1955 3463 c-43 -7 -49 -14 -83 -106 -163 -436 -397 -1071 -407
-1105 -17 -56 -11 -70 32 -78 53 -10 182 1 198 17 8 8 37 77 65 153 28 77 56
146 62 153 15 19 451 19 466 0 6 -7 34 -76 62 -152 28 -76 56 -145 62 -152 16
-20 234 -18 242 2 3 8 -51 172 -120 363 -334 925 -319 886 -345 899 -23 12
-167 15 -234 6z m131 -340 c37 -83 135 -374 128 -384 -3 -5 -73 -9 -155 -9
l-150 0 7 48 c12 84 118 402 135 402 4 0 20 -26 35 -57z"/>
<path d="M5543 3463 c-29 -3 -46 -10 -53 -23 -7 -12 -9 -234 -8 -637 l3 -618
100 -3 c55 -1 107 2 115 8 13 8 16 71 20 431 l5 422 79 -209 c147 -390 179
-468 202 -491 21 -21 32 -23 139 -23 64 0 125 4 135 10 17 9 126 271 236 569
38 102 39 103 51 75 9 -21 12 -130 13 -400 0 -285 3 -374 13 -382 21 -17 141
-25 181 -12 l36 12 0 623 c0 567 -1 624 -17 636 -20 17 -268 20 -296 3 -13 -7
-68 -141 -161 -390 -79 -208 -153 -401 -165 -429 l-23 -50 -25 55 c-14 30 -40
100 -60 155 -85 244 -197 554 -215 596 -12 29 -30 51 -46 59 -27 14 -182 21
-259 13z"/>
<path d="M4750 3134 c-139 -30 -246 -112 -304 -229 -42 -87 -56 -148 -56 -251
0 -109 22 -190 75 -279 92 -153 205 -212 422 -217 l118 -3 78 37 c180 86 277
246 277 458 0 252 -152 439 -393 485 -94 18 -131 18 -217 -1z m225 -233 c53
-25 77 -53 117 -136 27 -59 32 -81 32 -140 -1 -80 -17 -125 -65 -180 -48 -54
-119 -85 -197 -85 -75 0 -115 16 -167 68 -62 62 -79 105 -80 202 0 133 47 218
150 266 63 30 152 32 210 5z"/>
<path d="M7285 3140 c-33 -4 -80 -13 -105 -20 -57 -15 -180 -79 -187 -97 -5
-13 44 -140 58 -148 4 -3 42 12 84 32 75 35 82 37 189 37 94 1 116 -2 146 -19
41 -24 80 -94 80 -143 l0 -34 -185 8 c-217 8 -247 1 -315 -72 -61 -66 -94
-143 -98 -232 -7 -127 41 -202 167 -261 49 -23 69 -26 156 -26 89 0 107 4 162
29 35 16 68 35 74 42 18 22 37 17 51 -13 19 -40 52 -51 136 -45 l72 4 0 263
c0 350 -20 479 -87 578 -62 90 -226 138 -398 117z m108 -555 c35 -8 82 -14
103 -12 l39 2 -3 -39 c-4 -50 -23 -87 -62 -119 -76 -65 -228 -61 -275 7 -20
27 -19 96 1 125 19 27 67 50 106 51 15 0 56 -7 91 -15z"/>
<path d="M8330 3136 c-60 -13 -129 -46 -149 -70 -19 -23 -27 -20 -41 14 -17
41 -37 50 -114 50 -108 0 -101 42 -104 -605 -1 -302 1 -584 5 -625 l8 -75 102
-3 c97 -3 103 -2 115 20 9 16 14 82 16 211 2 103 7 187 10 187 4 0 26 -13 49
-29 87 -59 246 -67 348 -16 30 14 80 49 110 77 95 86 134 175 156 351 12 97
11 112 -5 164 -60 193 -194 326 -356 352 -77 13 -80 13 -150 -3z m146 -255
c52 -24 108 -90 124 -147 17 -59 8 -159 -18 -210 -45 -89 -125 -129 -238 -122
-76 5 -121 35 -155 105 -21 41 -24 62 -23 148 1 110 11 140 62 188 59 56 170
73 248 38z"/>
<path d="M2984 3126 c-93 -30 -192 -123 -244 -230 -60 -122 -73 -273 -36 -412
56 -212 257 -357 449 -324 82 14 118 28 165 61 l44 32 -7 -34 c-30 -153 -48
-190 -106 -220 -59 -30 -211 -27 -320 7 -140 42 -125 47 -135 -43 -5 -43 -9
-85 -9 -93 0 -21 131 -58 256 -71 134 -15 234 -2 327 42 124 60 188 147 211
289 11 69 16 956 5 984 -5 13 -21 16 -76 16 -85 0 -104 -9 -112 -54 -9 -49
-21 -52 -64 -18 -75 59 -120 75 -217 79 -56 2 -105 -2 -131 -11z m253 -242
c87 -51 128 -167 106 -299 -26 -152 -133 -222 -275 -181 -109 31 -166 137
-155 284 4 58 12 85 34 120 67 107 184 138 290 76z"/>
<path d="M3796 3108 c-20 -93 -26 -215 -26 -542 0 -327 2 -377 16 -390 22 -22
170 -22 202 0 21 15 22 21 22 172 0 214 22 410 52 471 43 85 104 107 221 76
32 -8 62 -15 68 -15 6 0 9 47 7 123 l-3 122 -85 3 c-104 4 -149 -8 -201 -55
l-39 -35 -20 46 -19 46 -95 0 c-91 0 -96 -1 -100 -22z"/>
</g>
</svg>
